<svg id="SvgjsSvg1112" width="360" height="360" xmlns="http://www.w3.org/2000/svg" version="1.1" xmlns:xlink="http://www.w3.org/1999/xlink" xmlns:svgjs="http://svgjs.com/svgjs"><defs id="SvgjsDefs1113"></defs><g id="SvgjsG1114" transform="matrix(1,0,0,1,0,0)"><svg xmlns="http://www.w3.org/2000/svg" xmlns:xlink="http://www.w3.org/1999/xlink" enable-background="new 0 0 600 400" viewBox="0 0 600 400" width="360" height="360"><path fill="#b8e2c8" d="M306.272,56.54c-34.708,33.596-73.944,62.795-158.836,124.487
			c-84.892,61.692-194.18,111.225-74.736,141.568c119.444,30.344,358.67,63.126,421.344-13.22
			c62.674-76.346-156.024-52.212-169.007-107.883c-12.984-55.671,179.95-16.899,186.327-82.132
			C517.741,54.128,363.473,1.172,306.272,56.54z" class="colorF6F2F1 svgShape"></path><ellipse cx="498.988" cy="209.389" fill="#b8e2c8" rx="81.012" ry="27.752" class="colorF6F2F1 svgShape"></ellipse><path fill="#0a0909" d="M165.232 278.682c-34.282 0-56.949-8.888-64.472-25.546-8.549-18.929 3.498-45.582 33.921-75.05 30.359-29.406 75.402-58.129 126.833-80.877S364.612 60.407 407 57.637c42.479-2.779 70.579 6.119 79.127 25.048 8.55 18.929-3.496 45.582-33.919 75.05-30.359 29.406-75.403 58.129-126.833 80.877-51.43 22.748-103.099 36.802-145.487 39.573C174.792 278.518 169.904 278.682 165.232 278.682zM421.681 57.668c-4.668 0-9.551.165-14.645.498-42.327 2.767-93.93 16.804-145.304 39.527C155.755 144.567 83.763 214.202 101.249 252.92c17.486 38.72 117.932 32.083 223.908-14.791 51.374-22.724 96.361-51.409 126.676-80.773 30.251-29.301 42.256-55.743 33.806-74.454C478.207 66.446 455.72 57.668 421.681 57.668zM159.517 89.765c-5.499.001-10.349-1.921-13.601-4.948-2.831 1.448-7.19 2.401-13.893 1.86-.157-.012-.274-.15-.261-.307.012-.158.16-.289.307-.261 6.438.521 10.639-.395 13.375-1.75-.108-.111-.215-.223-.32-.335-3.216-3.47-3.698-7.434-1.256-10.346 1.531-1.824 3.311-2.389 4.888-1.543 2.061 1.104 3.017 4.208 2.177 7.064-.401 1.361-1.497 3.618-4.478 5.325 5.171 4.582 16.637 7.992 28.793-.724 2.866-2.054 4.953-4.064 6.464-5.952-3.46-.729-6.325-3.426-7.506-7.08-1.034-3.199-.492-6.437 1.416-8.451 1.58-1.668 3.613-2.277 5.579-1.673 2.387.734 4.244 3.138 4.732 6.122.306 1.874.342 5.859-3.186 10.667 4.739.493 10.2-2.732 15.471-9.158 16.837-20.531 7.209-46.386 7.11-46.645-.056-.147.017-.311.164-.368.149-.056.312.018.369.164.1.262 9.843 26.427-7.202 47.211-6.994 8.527-12.661 9.832-16.31 9.322-1.558 2-3.738 4.131-6.768 6.303C170.17 88.142 164.569 89.765 159.517 89.765zM147.28 72.328c-.991 0-2.029.588-2.975 1.717-2.242 2.674-1.768 6.349 1.238 9.591.138.148.282.296.433.443 3.1-1.719 4.102-3.997 4.41-5.041.856-2.911-.293-5.54-1.899-6.4C148.098 72.431 147.693 72.328 147.28 72.328zM179.682 60.982c-1.308 0-2.569.589-3.647 1.728-1.764 1.861-2.257 4.882-1.287 7.881 1.138 3.522 3.919 6.102 7.256 6.734.033.006.067.012.1.018 3.587-4.745 3.563-8.659 3.265-10.484-.452-2.774-2.155-4.999-4.337-5.67C180.58 61.051 180.128 60.982 179.682 60.982z" class="color0A0909 svgShape"></path><g fill="#000000" class="color000 svgShape"><path fill="#9ca5ff" d="M347.256,193.747h204.506c3.843,0,6.958-3.115,6.958-6.958V56.493c0-3.843-3.115-6.958-6.958-6.958
				H347.256c-3.843,0-6.958,3.115-6.958,6.958v130.296C340.298,190.632,343.413,193.747,347.256,193.747z" class="color6797F3 svgShape"></path><path fill="#413ada" d="M347.157,49.375h204.732c3.875,0,7.016,3.141,7.016,7.016v14.59H340.141v-14.59
				C340.141,52.516,343.282,49.375,347.157,49.375z" class="color464D7B svgShape"></path><path fill="#f7ebd2" d="M376.638,121.472h-22.929c-1.775,0-3.214-1.439-3.214-3.214V85.172c0-1.775,1.439-3.214,3.214-3.214
				h22.929c1.775,0,3.214,1.439,3.214,3.214v33.086C379.852,120.033,378.413,121.472,376.638,121.472z" class="colorF7EBD2 svgShape"></path><path fill="#0a0909" d="M375.877 89.72h-21.101c-.206 0-.372-.166-.372-.372 0-.206.166-.372.372-.372h21.101c.206 0 .372.166.372.372C376.249 89.554 376.082 89.72 375.877 89.72zM375.877 95.201h-21.101c-.206 0-.372-.166-.372-.372s.166-.372.372-.372h21.101c.206 0 .372.166.372.372S376.082 95.201 375.877 95.201zM375.877 100.683h-21.101c-.206 0-.372-.166-.372-.372 0-.206.166-.372.372-.372h21.101c.206 0 .372.166.372.372C376.249 100.517 376.082 100.683 375.877 100.683zM375.877 106.165h-21.101c-.206 0-.372-.166-.372-.372 0-.206.166-.372.372-.372h21.101c.206 0 .372.166.372.372C376.249 105.998 376.082 106.165 375.877 106.165zM375.877 111.647h-21.101c-.206 0-.372-.166-.372-.372 0-.206.166-.372.372-.372h21.101c.206 0 .372.166.372.372C376.249 111.481 376.082 111.647 375.877 111.647z" class="color0A0909 svgShape"></path><g fill="#000000" class="color000 svgShape"><path fill="#f7ebd2" d="M376.791,176.987h-22.929c-1.775,0-3.214-1.439-3.214-3.214v-33.086c0-1.775,1.439-3.214,3.214-3.214
				h22.929c1.775,0,3.214,1.439,3.214,3.214v33.086C380.005,175.549,378.566,176.987,376.791,176.987z" class="colorF7EBD2 svgShape"></path><path fill="#0a0909" d="M376.03 145.235h-21.101c-.206 0-.372-.166-.372-.372 0-.206.166-.372.372-.372h21.101c.206 0 .372.166.372.372C376.402 145.069 376.236 145.235 376.03 145.235zM376.03 150.717h-21.101c-.206 0-.372-.166-.372-.372s.166-.372.372-.372h21.101c.206 0 .372.166.372.372S376.236 150.717 376.03 150.717zM376.03 156.199h-21.101c-.206 0-.372-.166-.372-.372s.166-.372.372-.372h21.101c.206 0 .372.166.372.372S376.236 156.199 376.03 156.199zM376.03 161.68h-21.101c-.206 0-.372-.166-.372-.372s.166-.372.372-.372h21.101c.206 0 .372.166.372.372S376.236 161.68 376.03 161.68zM376.03 167.162h-21.101c-.206 0-.372-.166-.372-.372s.166-.372.372-.372h21.101c.206 0 .372.166.372.372S376.236 167.162 376.03 167.162z" class="color0A0909 svgShape"></path></g><g fill="#000000" class="color000 svgShape"><polygon fill="#f7ebd2" fill-rule="evenodd" points="411.703 52.908 420.083 99.374 452.827 96.687 446.842 48.676" clip-rule="evenodd" class="colorF7EBD2 svgShape"></polygon><polygon fill="#ffffff" points="382.394 277.192 382.263 278.956 421.769 275.456 421.334 273.674" class="colorFFF svgShape"></polygon><polygon fill="#ffffff" points="411.668 278.682 411.973 280.469 450.27 278.783 450.145 276.728" class="colorFFF svgShape"></polygon><path fill="#9ca5ff" d="M419.673,249.554l1.622,24.867l-38.901,2.771c0,0-0.775-6.127,8.427-11.187
					c9.202-5.06,11.958-12.253,11.662-15.556L419.673,249.554z" class="color6797F3 svgShape"></path><path fill="#1ec161" d="M516.315,152.169c1.976,12.431-5.238,41.879-11.062,41.583c-5.824-0.297-52.601-1.436-56.997,1.943
					c-4.396,3.379-0.642,32.143-0.642,32.143l-26.068,2.027l-1.073-5.769l-22.344,2.093c0,0-3.203-27.37,0.582-40.719
					c3.785-13.349,12.243-22.919,52.793-26.724C492.053,154.94,516.315,152.169,516.315,152.169z" class="color1636BD svgShape"></path><path fill="#f76c5e" d="M423.042 229.749c.83 6.881 5.577 27.093 5.577 27.093l18.206-2.552c0 0-.948-21.684-1.552-26.27L423.042 229.749zM399.897 226.023c1.12 7.487 2.587 24.426 2.587 24.426l17.19-.895.799-25.458L399.897 226.023z" class="colorFC7F61 svgShape"></path><path fill="#9ca5ff" d="M428.619,256.842c0.592,4.844-1.074,9.511-7.59,12.441c-6.516,2.929-8.224,5.358-9.361,9.4l38.477-1.954
					l-3.32-22.438L428.619,256.842z" class="color6797F3 svgShape"></path><path fill="#ffffff" d="M419.948 269.787c1.532 1.631 4.776 1.361 8.168-1.821 3.392-3.182 4.774-11 3.957-13.153-.817-2.154-3.804-.481-3.576 1.502.228 1.983.316 4.797-1.532 7.865C425.222 267.075 422.807 268.535 419.948 269.787zM389.497 266.783c3.144 1.303 5.847.664 10.53-3.461 4.682-4.125 6.775-10.354 6.679-13.092s-4.446-2.288-4.446-2.288.194.643.224 2.508c.029 1.865-1.669 7.163-5.186 10.348C393.782 263.982 391.593 265.303 389.497 266.783z" class="colorFFF svgShape"></path><polygon fill="#0a0909" points="423.042 229.749 445.547 230.894 445.273 228.02" class="color0A0909 svgShape"></polygon><polygon fill="#0a0909" points="399.897 226.023 420.379 227.065 420.472 224.096" class="color0A0909 svgShape"></polygon><path fill="#0a0909" d="M420.08 222.332c-.15 0-.277-.115-.288-.267-.247-3.25-.564-6.712-.871-10.059-1.298-14.171-2.641-28.823.277-36.637 3.602-9.649 13.854-13.289 13.957-13.325.151-.048.315.028.368.179.052.151-.027.316-.178.369-.101.034-10.099 3.592-13.604 12.979-2.871 7.691-1.535 22.277-.243 36.382.307 3.35.625 6.813.871 10.068.012.16-.107.299-.266.311C420.094 222.332 420.087 222.332 420.08 222.332zM420.472 224.385c-.15 0-.276-.115-.288-.266-.013-.159.106-.299.265-.311l15.438-1.247c.183-.014.299.107.311.265.013.159-.106.299-.265.311l-15.438 1.247C420.487 224.385 420.479 224.385 420.472 224.385zM438.578 222.574c-.143 0-.267-.105-.287-.25-.021-.158.09-.304.248-.326l8.306-1.141c.151-.015.304.089.326.248.021.158-.09.304-.248.326l-8.306 1.141C438.604 222.573 438.591 222.574 438.578 222.574z" class="color0A0909 svgShape"></path><path fill="#0a0909" d="M397.44 218.915c-.143 0-.267-.105-.287-.251-.021-.158.09-.304.249-.325l22.103-2.982c.172-.015.303.092.325.249.021.158-.09.304-.249.325l-22.103 2.982C397.466 218.914 397.452 218.915 397.44 218.915zM426.804 270.239c-.039 0-.079-.007-.116-.024l-3.877-1.7c-.147-.064-.214-.235-.149-.381.064-.147.24-.215.381-.149l3.877 1.7c.147.064.214.235.149.381C427.021 270.174 426.914 270.239 426.804 270.239zM429.908 267.819c-.023 0-.046-.002-.07-.008l-4.642-1.146c-.155-.038-.25-.195-.212-.351.037-.156.194-.253.351-.212l4.642 1.146c.155.038.25.195.212.351C430.157 267.731 430.038 267.819 429.908 267.819zM431.572 264.922c-.009 0-.019 0-.028-.001l-4.608-.452c-.159-.016-.275-.157-.26-.316.016-.159.157-.272.316-.26l4.608.452c.159.016.275.157.26.316C431.846 264.81 431.72 264.922 431.572 264.922zM428.611 258.808c-.153 0-.281-.12-.289-.274-.008-.16.115-.296.274-.304l4.842-.25c.155-.01.296.115.304.274.008.16-.115.296-.274.304l-4.842.25C428.621 258.808 428.616 258.808 428.611 258.808z" class="color0A0909 svgShape"></path><path fill="#0a0909" d="M427.033 261.42c-.049 0-.099-.004-.147-.012-.245-.041-.573-.206-.749-.752-.155-.488-.098-.937.168-1.301.336-.459.955-.723 1.567-.876-1.566-.401-3.372-1.024-3.489-1.775-.033-.212.032-.522.528-.795 2.191-1.212 5.23 2.197 5.359 2.343.071.079.089.185.059.278.017.08.001.165-.051.235C429.934 259.222 428.219 261.419 427.033 261.42zM429.468 258.858c-.672.015-2.217.184-2.695.84-.155.214-.182.469-.083.782.104.324.247.349.293.357C427.512 260.936 428.652 259.844 429.468 258.858zM425.958 256.228c-.268 0-.527.056-.767.189-.204.111-.238.188-.236.199.061.399 2.152 1.154 4.513 1.636C428.781 257.572 427.258 256.228 425.958 256.228zM397.665 267.575c-.043 0-.088-.009-.128-.03l-5.193-2.571c-.144-.071-.203-.244-.131-.387.071-.144.248-.205.387-.131l5.193 2.571c.144.071.203.244.131.387C397.874 267.516 397.772 267.575 397.665 267.575zM400.928 265.434c-.03 0-.061-.004-.092-.015l-6.262-2.096c-.152-.05-.234-.215-.182-.366.05-.151.215-.24.366-.182l6.262 2.096c.152.05.234.215.182.366C401.161 265.357 401.049 265.434 400.928 265.434zM403.456 262.155c-.012 0-.024 0-.037-.002l-6.424-.829c-.158-.02-.27-.165-.25-.324.021-.159.155-.28.324-.25l6.424.829c.158.02.27.165.25.324C403.724 262.049 403.6 262.155 403.456 262.155zM399.526 259.193c-.353 0-.713-.101-1.078-.303-.648-.359-.971-.82-.961-1.372.022-1.26 1.9-2.597 3.116-3.331-2.402-.027-7.156-.259-7.665-1.658-.164-.451.065-.936.684-1.441 3.323-2.704 8.62 1.707 9.421 2.407l5.929-.498c.157-.011.299.105.312.264.014.159-.105.299-.264.312l-5.841.491c-.214.876-1.12 4.164-2.86 4.953C400.061 259.134 399.796 259.193 399.526 259.193zM401.794 254.18c-1.078.557-3.708 2.168-3.729 3.347-.005.325.212.606.663.856.481.265.922.301 1.353.106 1.385-.629 2.22-3.359 2.487-4.375L401.794 254.18zM396.147 250.805c-.776 0-1.517.208-2.157.73-.23.186-.601.538-.507.793.348.958 5.019 1.314 8.22 1.278.002 0 .004 0 .007 0l.508-.043C401.112 252.683 398.477 250.805 396.147 250.805z" class="color0A0909 svgShape"></path><path fill="#090909" fill-rule="evenodd" d="M475.654,58.429c-6.391,2.562-5.998,10.395-3.475,14.725
				c0,0-1.581-6.401,0.252-8.476c0,0-2.006,12.827,11.65,16.281c13.654,3.455,30.036,29.242,30.036,29.242
				s9.836-10.705,7.357-20.915C518.995,79.074,507.37,75.39,507.37,75.39s8.023-0.616,15.322,11.546c0,0-1.637-6.294-8.535-10.873
				c-6.898-4.581-13.721-5.736-13.721-5.736s-3.717-10.587-11.628-13.189C480.896,54.535,479.943,56.707,475.654,58.429z" clip-rule="evenodd" class="color090909 svgShape"></path><path fill="#f76c5e" fill-rule="evenodd" d="M432.519,112.183c-3.115,1.647-11.553-19.3-11.768-22.443
				c-0.215-3.14,1.133-2.367,3.54-2.02c2.406,0.347,3.634-1.837,3.66-3.825c0.028-1.987,0.266-10.909-1.023-10.436
				c-1.289,0.476-7.009,2.157-9.848,1.894c-2.839-0.261-3.876-1.189-5.523,5.306c-1.647,6.497-3.037,14.029-0.599,27.226
				c2.437,13.197,15.859,30.954,25.342,31.836c9.483,0.881,14.541-8.431,16.885-13.741
				C453.184,125.981,440.103,108.174,432.519,112.183z" clip-rule="evenodd" class="colorFB7E60 svgShape"></path><path fill="#413ada" fill-rule="evenodd" d="M496.273,81.466c4.884,1.748,20.193,4.313,31.601,15.195
				c11.408,10.883,19.49,37.933,21.38,43.766c0,0-8.256-4.581-15.423-4.778c-7.166-0.196-12.536,2.4-12.536,2.4l2.147,5.504
				l-6.289,18.354c0,0-11.88-6.561-27.424-4.48c-25.607,5.868-37.635,1.264-37.635,1.264s5.129-17.572,8.352-30.161
				c0,0-8.055,3.926-12.663,7.239c0,0-1.851-9.467-15.463-23.742c0,0,8.724-7.943,27.194-17.405
				c18.47-9.463,24.344-9.561,24.344-9.561S491.387,79.718,496.273,81.466z" clip-rule="evenodd" class="color464D7B svgShape"></path><g fill="#000000" class="color000 svgShape"><rect width="5.801" height="28.96" x="478.415" y="126.331" fill="#0a0909" fill-rule="evenodd" clip-rule="evenodd" transform="rotate(44.911 481.33 140.815)" class="color0A0909 svgShape"></rect><polygon fill-rule="evenodd" points="468.187 153.979 469.038 149.018 473.146 153.113" clip-rule="evenodd" fill="#000000" class="color000 svgShape"></polygon><polygon fill="#fc2222" fill-rule="evenodd" points="468.087 155.186 466.603 154.407 468.428 152.576 469.562 153.706" clip-rule="evenodd" class="colorFC2222 svgShape"></polygon><polygon fill="#fc2222" fill-rule="evenodd" points="482.869 135.144 488.814 137.396 479.469 146.771 473.366 144.677" clip-rule="evenodd" class="colorFC2222 svgShape"></polygon></g><path fill="#f76c5e" fill-rule="evenodd" d="M521.133,138.02c0,0,11.081-6.873,26.926,1.763
				c0,0,4.999,14.865-3.551,22.113c-8.55,7.25-20.667,3.506-30.337-0.99c-9.672-4.498-16.749-8.304-23.521-9.82
				c-6.77-1.517-9.919,0.807-10.811-1.891c-0.892-2.698-0.444-4.298-2.459-5.214c-2.015-0.916-7.475-1.065-5.865-2.074
				c1.61-1.01,13.063,0.784,13.744-0.522c0.681-1.306,0.509-1.169,2.75-3.181c0,0-0.356,1.162,3.355,2.764
				c3.709,1.6,23.831,2.428,31.469,1.849L521.133,138.02z" clip-rule="evenodd" class="colorFB7E60 svgShape"></path><path fill="#090909" fill-rule="evenodd" d="M521.141 138.064c-1.068-2.736-4.199-10.048-4.199-10.048l2.232 14.95c0 0 2.512-.034 3.68-.148C522.854 142.819 522.211 140.802 521.141 138.064zM460.446 128.526c2.475-1.297 5.492-2.717 5.492-2.717s-4.197 2.651-6.215 5.679L460.446 128.526zM532.344 135.457c5.658.974 13.851 4.308 16.357 6.68 0 0-.358-1.469-.61-2.286 0 0-3.031-2.122-8.268-3.467C534.587 135.039 532.344 135.457 532.344 135.457z" clip-rule="evenodd" class="color090909 svgShape"></path><g fill="#000000" class="color000 svgShape"><path fill="#ffffff" d="M530.765,114.96c-2.508,0-5.004-0.547-6.522-2.317c-0.506-0.59-0.894-1.156-1.183-1.692
					c-0.336,0.157-0.694,0.28-1.064,0.358c-1.041,0.216-2.561,0.152-3.905-1.38c-1.387-1.583-2.512-3.845-3.193-5.947
					c-0.005,0.003-0.01,0.005-0.015,0.007c-0.777,0.335-2.047,0.375-3.704-1.341c-4.54-4.707-3.497-7.348-3.45-7.459
					c0.024-0.057,0.094-0.089,0.15-0.06c0.058,0.024,0.087,0.092,0.063,0.15c-0.011,0.026-1.016,2.627,3.403,7.208
					c1.239,1.285,2.429,1.73,3.447,1.291c0.012-0.005,0.024-0.011,0.036-0.016c-0.683-2.198-0.869-4.186-0.344-4.989
					c0.173-0.266,0.513-0.543,1.136-0.344c0.705,0.223,1.14,0.918,1.191,1.905c0.065,1.273-0.55,2.883-1.698,3.54
					c0.678,2.09,1.797,4.356,3.152,5.901c1.273,1.451,2.704,1.511,3.685,1.307c0.35-0.073,0.687-0.188,1.006-0.336
					c-1.063-2.12-0.577-3.739,0.19-4.425c0.699-0.622,1.622-0.549,2.299,0.18c0.392,0.422,0.49,1.024,0.276,1.695
					c-0.295,0.928-1.222,2.01-2.448,2.65c0.279,0.521,0.655,1.072,1.147,1.645c3.794,4.425,14.315,0.85,14.422,0.815
					c0.058-0.025,0.126,0.011,0.146,0.072c0.021,0.059-0.011,0.126-0.072,0.146C538.647,113.617,534.692,114.96,530.765,114.96z
					 M524.19,106.128c-0.31,0-0.619,0.121-0.892,0.365c-0.683,0.611-1.123,2.144-0.132,4.149c1.17-0.609,2.053-1.636,2.334-2.516
					c0.133-0.416,0.201-1.01-0.226-1.468C524.948,106.307,524.567,106.128,524.19,106.128z M515.221,98.592
					c-0.231,0-0.411,0.102-0.545,0.307c-0.485,0.742-0.292,2.638,0.365,4.749c1.043-0.626,1.599-2.117,1.539-3.302
					c-0.045-0.887-0.421-1.505-1.031-1.698C515.429,98.611,515.32,98.592,515.221,98.592z" class="colorFFF svgShape"></path></g><g fill="#000000" class="color000 svgShape"><path fill="#ffffff" d="M448.024,123.223c-0.033,0-0.066-0.015-0.09-0.042c-0.04-0.049-0.033-0.122,0.016-0.163
					c0.927-0.76,1.134-1.674,1.081-2.448c-1.042,0.157-1.919-0.017-2.569-0.38c-1.057-0.59-1.535-1.656-1.216-2.717
					c0.193-0.645,0.603-0.793,0.911-0.804c0.013,0,0.025-0.001,0.037-0.001c0.953,0,2.253,1.248,2.801,2.701
					c0.097,0.255,0.192,0.576,0.242,0.935c1.553-0.302,3.46-1.361,5.491-3.649c2.083-2.346,2.013-4.293,1.519-5.579
					c-1.936,1.699-3.519,1.122-4.187,0.732c-1.338-0.784-2.051-2.508-1.526-3.691c0.187-0.419,0.627-0.652,1.237-0.654
					c0.002,0,0.005,0,0.007,0c1.483,0,3.65,1.291,4.552,3.222c0.32-0.308,0.65-0.682,0.987-1.135
					c3.888-5.204,0.508-13.768,0.474-13.853c-0.024-0.059,0.005-0.127,0.063-0.15c0.059-0.026,0.126,0.005,0.15,0.063
					c0.035,0.088,3.463,8.771-0.502,14.079c-0.367,0.491-0.725,0.893-1.074,1.221c0.547,1.345,0.675,3.415-1.529,5.897
					c-2.074,2.335-4.034,3.416-5.641,3.723c0.064,0.838-0.151,1.836-1.164,2.667C448.076,123.214,448.051,123.223,448.024,123.223z
					 M446.197,116.899c-0.01,0-0.02,0-0.031,0c-0.339,0.012-0.573,0.227-0.697,0.64c-0.286,0.953,0.148,1.914,1.107,2.449
					c0.613,0.344,1.449,0.506,2.433,0.355c-0.046-0.343-0.137-0.65-0.229-0.893C448.271,118.102,447.048,116.899,446.197,116.899z
					 M451.78,107.693c-0.002,0-0.004,0-0.006,0c-0.365,0-0.838,0.091-1.027,0.517c-0.473,1.062,0.21,2.681,1.432,3.397
					c0.626,0.368,2.124,0.902,3.975-0.758c-0.002-0.004-0.003-0.008-0.005-0.013C455.299,108.954,453.206,107.693,451.78,107.693z" class="colorFFF svgShape"></path></g><g fill="#000000" class="color000 svgShape"><path fill="#ffffff" d="M490.965,133.251c-0.056,0-0.106-0.041-0.114-0.099c-0.009-0.059-0.945-5.984-6.014-7.347
					c-2.126-0.572-4.086,0.151-5.515,1.272c0.268,0.303,0.466,0.666,0.586,1.084c0.448,1.556-0.278,3.434-1.229,4.074
					c-0.475,0.32-0.969,0.312-1.395-0.023c-0.713-0.561-0.76-1.652-0.125-2.918c0.377-0.751,1.009-1.555,1.826-2.239
					c-0.48-0.451-1.233-0.798-2.413-0.833c-0.064-0.002-0.114-0.055-0.113-0.119c0.002-0.063,0.053-0.113,0.116-0.113
					c0.001,0,0.002,0,0.003,0c1.109,0.034,1.988,0.353,2.584,0.922c1.48-1.169,3.517-1.926,5.734-1.33
					c5.216,1.404,6.172,7.476,6.182,7.537c0.01,0.063-0.034,0.122-0.097,0.131C490.976,133.25,490.97,133.251,490.965,133.251z
					 M479.146,127.219c-0.797,0.664-1.414,1.447-1.779,2.177c-0.582,1.16-0.559,2.144,0.061,2.633
					c0.436,0.343,0.851,0.196,1.122,0.013c0.867-0.583,1.552-2.378,1.137-3.818C479.591,127.894,479.426,127.539,479.146,127.219z" class="colorFFF svgShape"></path></g><path fill="#f76c5e" fill-rule="evenodd" d="M476.182,61.541c-0.377,5.255,0.775,12.046,4.722,13.561
				c6.346,2.438,2.825,8.468,2.825,8.468s5.838,19.695,11.801-2.889l-5.056-6.91c0,0,4.336-1.317,2.614-4.726
				c-1.717-3.393-5.222-0.435-5.222-0.435s-3.489-0.259-6.638-2.555C478.078,63.761,476.182,61.541,476.182,61.541z" clip-rule="evenodd" class="colorFB7E60 svgShape"></path><path fill="#090909" fill-rule="evenodd" d="M481.334,75.288c2.251,0.936,4.585,0.952,4.585,0.952
				s-1.508,1.787-2.597,1.738C482.232,77.929,479.083,74.352,481.334,75.288z" clip-rule="evenodd" class="color090909 svgShape"></path><g fill="#000000" class="color000 svgShape"><path fill="#090909" d="M489.575,72.845c-0.191,0-0.36-0.137-0.394-0.331c-0.638-3.609,1.95-4.454,1.976-4.462
					c0.212-0.063,0.435,0.053,0.501,0.265c0.064,0.21-0.052,0.433-0.262,0.5c-0.085,0.027-1.937,0.67-1.427,3.558
					c0.039,0.218-0.107,0.425-0.324,0.463C489.622,72.843,489.598,72.845,489.575,72.845z" class="color090909 svgShape"></path></g><g fill="#000000" class="color000 svgShape"><path fill="#090909" d="M492.064,71.711c-0.079,0-0.157-0.022-0.226-0.07c-0.361-0.245-1.444-0.86-2.121-0.783
					c-0.231,0.032-0.419-0.131-0.445-0.351c-0.026-0.22,0.131-0.419,0.351-0.445c1.086-0.127,2.51,0.811,2.667,0.918
					c0.182,0.125,0.23,0.374,0.105,0.556C492.317,71.651,492.191,71.711,492.064,71.711z" class="color090909 svgShape"></path></g><circle cx="479.22" cy="67.026" r=".493" fill="#0a0909" fill-rule="evenodd" clip-rule="evenodd" transform="rotate(-11.725 479.287 67.03)" class="color0A0909 svgShape"></circle><g fill="#000000" class="color000 svgShape"><path fill="#090909" d="M480.336,72.799c-0.21,0-0.386-0.162-0.4-0.374c-0.014-0.221,0.153-0.411,0.374-0.426
					c1.124-0.073,1.879-1.241,1.886-1.253c0.12-0.186,0.369-0.241,0.553-0.124c0.186,0.119,0.242,0.367,0.124,0.553
					c-0.04,0.062-0.985,1.525-2.511,1.624C480.353,72.799,480.344,72.799,480.336,72.799z" class="color090909 svgShape"></path></g><path fill="#ffffff" fill-rule="evenodd" d="M496.237,81.438l-0.707-0.757c0,0-1.131,3.94-2.48,6.68
				c-1.349,2.739-4.237,4.145-6.227,2.099c-1.99-2.047-3.093-5.89-3.093-5.89l0.136,1.487c0,0,0.824,4.667,3.299,6.146
				c2.476,1.479,5.658-0.471,7.081-3.697C495.665,84.278,496.237,81.438,496.237,81.438z" clip-rule="evenodd" class="colorFFF svgShape"></path><path fill="#f76c5e" fill-rule="evenodd" d="M413.074,76.373c0.074-0.12,2.637-8.708,2.637-8.708
				s0.795-0.145,1.641,1.427c0.846,1.572,0.197,7.05,0.197,7.05L413.074,76.373z" clip-rule="evenodd" class="colorFB7E60 svgShape"></path></g></g><g fill="#000000" class="color000 svgShape"><path fill="#9ca5ff" d="M62.363,287.83h204.506c3.843,0,6.958-3.115,6.958-6.958V150.576c0-3.843-3.115-6.958-6.958-6.958H62.363
				c-3.843,0-6.958,3.115-6.958,6.958v130.296C55.404,284.715,58.52,287.83,62.363,287.83z" class="color6797F3 svgShape"></path><path fill="#413ada" d="M62.263,143.458h204.732c3.875,0,7.016,3.141,7.016,7.016v14.59H55.247v-14.59
				C55.247,146.599,58.388,143.458,62.263,143.458z" class="color464D7B svgShape"></path><path fill="#f7ebd2" d="M203.584,143.555c0,0,7.925,26.322,9.019,29.666l21.359-7.626c0,0-8.258-20.682-7.482-28.083
			C226.481,137.512,212.781,147.105,203.584,143.555z" class="colorF7EBD2 svgShape"></path><path fill="#0a0909" d="M168.139,157.965c0,0,3.287,2.206,7.383,1.069c4.096-1.138,3.257-6.033,2.073-7.828
			c0,0,2.721-1.021,3.369-4.789s-2.53-6.212-4.962-6.253c-2.432-0.041-3.705,1.057-3.705,1.057s-0.562-2.738-3.772-3.407
			s-4.415,2.266-4.415,2.266s-5.396-3.806-8.989-3.278c-3.593,0.528-5.653,10.62-5.653,10.62L168.139,157.965z" class="color0A0909 svgShape"></path><path fill="#413ada" d="M135.022,165.072c-5.59-0.186-15.096,3.846-23.803,16.978c-8.707,13.133-15.193,29.401-19.075,42.058
			c-3.882,12.657-4.523,19.283-4.523,19.283s17.037,2.421,35.535,4.392c18.498,1.972,32.94,3.504,32.94,3.504
			s-0.846-15.962,1.976-25.608l5.746-23.901c0,0,7.761-14.552,9.646-16.855c0,0-6.26-4.431-10.561-7.752
			c-4.301-3.321-8.843-8.867-10.677-10.506c-1.835-1.64-15.16-1.866-15.16-1.866L135.022,165.072z" class="color1036BF svgShape"></path><path fill="#413ada" d="M188.458,347.822l-2.076,26.285l41.134,2.772c0,0,0.892-5.748-8.771-11.234
			c-9.663-5.486-12.474-13.137-12.113-16.627L188.458,347.822z" class="color464D7B svgShape"></path><path fill="#f76c5e" d="M146.828,154.46c-0.874-0.977-1.527-6.618,1.995-6.996s4.083,1.795,4.083,1.795s0.001,0.003,0.001,0.003
			c1.497-2.363,4.092-3.974,7.098-4.086c4.85-0.18,8.928,3.605,9.108,8.455c0.073,1.955-0.507,3.779-1.533,5.278l0.008,0.003
			c0,0-5.698,8.461-9.3,8.299c-1.839-0.083-3.596-0.403-5.1-1.242c0,0.001-0.001,0.001-0.001,0.001
			c-2.662,4.73-3.54,11.316-3.54,11.316s-4.328-1.12-8.009-4.727c-3.681-3.607-4.575-7.761-4.575-7.761
			C140.998,161.943,146.828,154.46,146.828,154.46z" class="colorFC7F61 svgShape"></path><path fill="#0a0909" d="M168.669,156.718c-3.521,0.665-3.183-4.208-3.183-4.208s-2.725,0.758-4.064-1.688
			c-1.339-2.446,0.381-3.89,0.381-3.89s-2.166,1.807-4.218,1.382c-2.052-0.426-4.762,3.748-4.762,3.748l-1.179-1.007l1.262-1.795
			c0,0,1.973-4.828,4.314-5.441c2.342-0.613,10.923,0.513,12.541,3.409c1.618,2.896-0.515,10.003-0.515,10.003L168.669,156.718z" class="color0A0909 svgShape"></path><polygon fill="#0a0909" points="152.677 152.329 151.423 151.292 151.042 151.635 152.494 152.698" class="color0A0909 svgShape"></polygon><path fill="#0a0909" d="M153.188,165.972c-2.802-1.964-3.583-5.731-3.583-5.731s-1.368,6.201,1.806,9.783
			C151.411,170.024,152.323,167.383,153.188,165.972z" class="color0A0909 svgShape"></path><path fill="#f76c5e" d="M157.694,196.25l11.215,10.125c0,0,11.178-5.868,18.602-9.363c7.424-3.495,16.558-6.922,18.079-10.164
			c1.521-3.242,2.49-8.106,3.045-8.193c0.555-0.086,2.378-0.515,4.5-1.744c2.122-1.228,3.091-2.545,3.368-3.048
			c0.277-0.503,1.252,0.118,0.832,1.184c0,0,0.23-0.009,0.588-0.087c0.358-0.079,0.347,0.512,0.347,0.512s0.933-0.527,1.074-0.27
			c0.141,0.257,0.216,1.404-0.934,2.268c-1.15,0.864-2.958,2.573-2.958,2.573s1.984,0.353,3.519-0.755
			c1.535-1.108,1.365-1.266,1.595-1.275c0.23-0.008,0.758,0.957-0.86,2.495c-1.618,1.538-3.351,1.734-3.974,2.644
			c-0.623,0.91-1.266,1.722-1.502,4.637c-0.236,2.915,0.032,6.157-2.28,7.573c-2.312,1.416-4.038,1.382-8.333,5.089
			c-4.296,3.707-15.588,14.012-20.939,18.481c-5.351,4.469-14.648,10.595-17.629,9.917c-2.981-0.677-15.09-6.598-21.6-15.617
			C143.448,213.234,148.216,205.437,157.694,196.25z" class="colorFC7F61 svgShape"></path><path fill="#f76c5e" d="M172.47,186.472c1.016,0.816,2.481,1.353,11.153-3.896c8.672-5.249,18.19-10.727,18.725-13.555
			c0.535-2.828,1.6-8.631,1.711-9.621c0.111-0.989,3.071-4.097,3.071-4.097s0.796,3.411,1.484,3.386
			c0.689-0.026,3.007-2.608,3.581-3.056c0.574-0.448,1.522-0.139,1.471,1.144c-0.051,1.283-2.18,4.958-2.812,6.509
			c-0.632,1.551,0.043,5.122-0.693,7.859c-0.736,2.737-3.787,4.131-5.23,6.402c-1.443,2.271-12.244,15.863-16.546,19.059
			l-19.477,9.771l-5.091-4.596C163.818,201.779,168.608,190.786,172.47,186.472z" class="colorFC7F61 svgShape"></path><path fill="#ffffff" d="M227.498,377.603c0,0,0.029-0.509,0.017-0.723l-34.204-4.041l1.608,1.995L227.498,377.603z" class="colorFFF svgShape"></path><path fill="#fbaf00" d="M87.622,243.391c-2.27,13.123,4.936,44.383,11.101,44.154c6.166-0.229,55.672-0.758,60.274,2.881
			c4.602,3.638,0.215,34.017,0.215,34.017l27.55,2.522l1.219-6.088l23.61,2.537c0,0,3.785-28.911-0.027-43.088
			c-3.812-14.177-12.621-24.425-55.467-29.038C113.25,246.674,87.622,243.391,87.622,243.391z" class="colorFEB91E svgShape"></path><path fill="#f76c5e" d="M185.18 326.82c-.977 7.268-6.293 28.584-6.293 28.584l-19.225-2.963c0 0 1.317-22.927 2.022-27.771L185.18 326.82zM209.721 323.213c-1.293 7.905-3.09 25.805-3.09 25.805l-18.173-1.196-.477-26.946L209.721 323.213z" class="colorFC7F61 svgShape"></path><path fill="#413ada" d="M178.887,355.404c-0.696,5.116,0.998,10.078,7.85,13.272c6.852,3.194,8.497,5.337,9.642,9.63
			l-40.339-3.502l3.622-22.363L178.887,355.404z" class="color464D7B svgShape"></path><path fill="#ffffff" d="M187.874 369.224c-1.644 1.703-5.072 1.371-8.615-2.044-3.543-3.415-4.892-11.707-3.996-13.974.896-2.267 4.032-.454 3.761 1.641-.27 2.095-.403 5.07 1.507 8.344C182.333 366.28 184.868 367.858 187.874 369.224zM220.134 366.487c-3.345 1.333-6.196.618-11.09-3.814-4.894-4.432-7.018-11.053-6.877-13.948.141-2.895 4.736-2.356 4.736-2.356s-.215.677-.273 2.65c-.058 1.973 1.662 7.603 5.336 11.023C215.642 363.462 217.938 364.891 220.134 366.487zM137.065 164.799l-2.042.273c0 0 .901 4.794 4.103 8.764 3.202 3.97 6.261 5.482 10.802 6.347l-.279-2.896c0 0-4.123-.93-7.714-4.738C138.344 168.742 137.065 164.799 137.065 164.799z" class="colorFFF svgShape"></path><path fill="#0a0909" d="M143.448 213.234c.428.584.815 1.077 1.157 1.498L143.448 213.234c0 0 4.437-7.85 14.246-16.984-6.867 8.104-10.378 13.227-13.055 18.524.817 1.005 1.34 1.538 1.34 1.538s-2.941 3.096-4.124 3.09C140.672 219.397 141.488 216.164 143.448 213.234zM172.47 186.472c-2.366 4.39-7.075 16.731-7.075 16.731l-1.577-1.424C163.818 201.779 168.049 191.567 172.47 186.472z" class="color0A0909 svgShape"></path><polygon fill="#0a0909" points="185.18 326.82 161.353 327.706 161.685 324.669" class="color0A0909 svgShape"></polygon><polygon fill="#0a0909" points="209.721 323.213 188.036 324.02 187.98 320.876" class="color0A0909 svgShape"></polygon><path fill="#0a0909" d="M169.203 206.671c-.072 0-.143-.025-.2-.074l-6.258-5.372c-.128-.111-.143-.304-.033-.432.11-.127.303-.143.432-.033l6.102 5.239 18.69-9.512c.151-.075.336-.016.412.134.077.151.017.336-.134.412l-18.873 9.604C169.299 206.66 169.251 206.671 169.203 206.671zM188.426 319.016c-.009 0-.019 0-.028-.001-.169-.015-.293-.164-.278-.332.308-3.44.694-7.1 1.068-10.64 1.571-14.904 3.196-30.316.27-38.494-3.575-9.99-14.099-13.891-14.205-13.929-.159-.057-.242-.233-.184-.392.058-.159.234-.238.392-.184.109.039 10.903 4.039 14.574 14.3 2.974 8.308 1.342 23.791-.237 38.764-.373 3.538-.759 7.195-1.066 10.63C188.716 318.896 188.582 319.016 188.426 319.016zM187.981 321.183c-.01 0-.02 0-.029-.001l-16.314-1.543c-.169-.016-.292-.165-.276-.335.016-.168.166-.288.334-.276l16.314 1.543c.169.016.292.165.276.335C188.271 321.064 188.137 321.183 187.981 321.183zM168.851 319.004c-.016 0-.031-.001-.046-.003l-8.771-1.327c-.167-.026-.282-.181-.257-.349.025-.168.184-.284.349-.258l8.771 1.327c.167.026.282.181.257.349C169.131 318.895 169 319.004 168.851 319.004z" class="color0A0909 svgShape"></path><path fill="#0a0909" d="M212.428,315.729c-0.015,0-0.03-0.001-0.046-0.003l-23.341-3.475c-0.167-0.025-0.283-0.181-0.257-0.349
				c0.025-0.167,0.179-0.276,0.348-0.258l23.341,3.475c0.167,0.025,0.283,0.181,0.257,0.349
				C212.707,315.621,212.577,315.729,212.428,315.729z" class="color0A0909 svgShape"></path><path fill="#ffffff" d="M196.505,378.756c0,0-0.035-0.413-0.443-1.463l-39.851-3.548l-0.387,2.387L196.505,378.756z" class="colorFFF svgShape"></path><path fill="#0a0909" d="M180.619 369.603c-.119 0-.233-.071-.282-.187-.066-.156.007-.336.163-.401l4.127-1.741c.156-.064.335.007.401.163.066.156-.007.336-.163.401l-4.127 1.741C180.699 369.595 180.659 369.603 180.619 369.603zM177.369 366.999c-.139 0-.265-.096-.298-.237-.038-.165.064-.329.229-.368l4.927-1.146c.164-.032.329.064.368.229.038.165-.064.329-.229.368l-4.927 1.146C177.415 366.996 177.392 366.999 177.369 366.999zM175.65 363.909c-.157 0-.291-.121-.305-.28-.014-.169.111-.317.28-.331l4.881-.411c.171-.02.317.112.331.279.014.169-.111.317-.28.332l-4.881.411C175.668 363.909 175.659 363.909 175.65 363.909zM178.872 357.484c-.007 0-.014 0-.021-.001l-5.12-.336c-.169-.011-.297-.156-.286-.325s.154-.32.326-.285l5.12.336c.169.011.297.156.286.325C179.166 357.36 179.031 357.484 178.872 357.484z" class="color0A0909 svgShape"></path><path fill="#0a0909" d="M180.513 360.27c-1.255 0-3.049-2.365-3.408-2.855-.054-.074-.07-.164-.051-.247-.031-.1-.01-.213.066-.295.138-.153 3.403-3.707 5.704-2.401.521.296.585.625.547.848-.134.793-2.056 1.426-3.718 1.829.645.169 1.297.457 1.646.949.276.389.33.865.158 1.378-.192.574-.543.744-.803.784C180.608 360.267 180.56 360.27 180.513 360.27zM177.961 357.524c.848 1.055 2.028 2.225 2.6 2.13.05-.008.201-.031.316-.374.11-.328.085-.6-.077-.828C180.304 357.753 178.673 357.551 177.961 357.524zM181.706 354.8c-1.292 0-2.867 1.234-3.745 2.085 2.508-.477 4.735-1.245 4.806-1.667.002-.011-.033-.094-.246-.215C182.27 354.861 181.995 354.8 181.706 354.8zM211.485 367.207c-.114 0-.224-.065-.276-.174-.073-.152-.009-.336.144-.408l5.531-2.646c.151-.072.335-.008.408.144.073.152.009.336-.144.408l-5.531 2.646C211.575 367.197 211.53 367.207 211.485 367.207zM208.064 364.895c-.13 0-.25-.083-.292-.213-.051-.161.037-.334.199-.386l6.656-2.127c.159-.047.334.037.385.198.051.161-.037.334-.199.386l-6.656 2.127C208.127 364.89 208.095 364.895 208.064 364.895zM205.437 361.389c-.153 0-.286-.115-.304-.271-.019-.168.101-.32.269-.34l6.808-.785c.176-.007.32.102.34.269.019.168-.101.32-.269.34l-6.808.785C205.461 361.388 205.449 361.389 205.437 361.389zM209.66 358.312c-.294 0-.583-.065-.864-.199-1.828-.86-2.74-4.354-2.953-5.283l-6.173-.603c-.168-.017-.292-.166-.275-.336.017-.168.17-.294.335-.275l6.265.613c.86-.729 6.53-5.32 10.002-2.409.647.543.884 1.059.703 1.535-.56 1.474-5.645 1.645-8.133 1.643 1.276.795 3.242 2.236 3.247 3.569.003.584-.347 1.068-1.036 1.439C210.399 358.21 210.025 358.312 209.66 358.312zM206.489 352.894c.268 1.078 1.11 3.98 2.568 4.665.45.212.919.182 1.432-.093.482-.258.715-.551.714-.897-.005-1.248-2.766-2.992-3.897-3.596L206.489 352.894zM207.427 352.37c3.37.104 8.317-.225 8.7-1.232.102-.269-.285-.647-.524-.847-2.684-2.252-7.159.806-8.735 2.025l.552.054C207.422 352.37 207.425 352.37 207.427 352.37zM148.69 153.49c-.087 0-.173-.037-.234-.108-.109-.129-.094-.322.035-.432.011-.009 1.068-.923 1.083-2.11.009-.688-.336-1.351-1.025-1.97-.126-.113-.137-.306-.023-.432.113-.127.306-.137.432-.023.828.744 1.241 1.564 1.229 2.438-.022 1.467-1.247 2.52-1.299 2.564C148.83 153.466 148.76 153.49 148.69 153.49z" class="color0A0909 svgShape"></path><path fill="#0a0909" d="M147.209 151.755c-.043 0-.087-.009-.129-.028-.154-.072-.22-.254-.149-.407.297-.641.727-1.066 1.278-1.266.879-.316 1.73.078 1.765.094.153.073.218.254.146.407-.073.151-.254.219-.407.147-.153-.07-1.517-.651-2.227.876C147.434 151.69 147.324 151.755 147.209 151.755zM211.886 178.82c-.062 0-.12-.038-.144-.1-.03-.079.011-.167.09-.196 1.212-.455 3.497-2.109 5.086-3.386.065-.054.162-.043.215.023.053.065.042.162-.024.215-1.606 1.292-3.924 2.966-5.169 3.434C211.923 178.817 211.905 178.82 211.886 178.82zM212.368 179.393c-.064 0-.124-.04-.146-.105-.026-.081.017-.167.098-.193 1.643-.542 5.439-3.373 5.477-3.403.069-.048.165-.036.214.031.051.068.037.163-.031.215-.157.118-3.874 2.89-5.565 3.447C212.4 179.391 212.383 179.393 212.368 179.393zM213.123 180.284c-.082 0-.15-.064-.153-.147-.003-.085.063-.156.148-.159l2.099-.078.011.306-2.099.078C213.127 180.284 213.125 180.284 213.123 180.284zM208.487 193.974c-.186 0-.386-.025-.601-.066-.083-.016-.138-.096-.122-.179.016-.082.096-.14.179-.121.83.158 1.315.061 1.661-.921.028-.081.112-.124.195-.094.08.027.121.115.094.194C209.576 193.692 209.111 193.974 208.487 193.974zM157.664 195.617c-.042 0-.084-.017-.115-.051-.299-.339-7.343-8.34-7.699-13.3-.006-.085.057-.158.142-.164.095-.003.158.058.164.142.348 4.858 7.55 13.037 7.623 13.119.056.063.05.16-.013.217C157.737 195.603 157.701 195.617 157.664 195.617zM140.556 218.618c-.035 0-.069-.011-.098-.035-8.86-7.346-19.963-23.166-20.074-23.325-.048-.07-.032-.164.038-.214.069-.047.165-.031.213.038.111.158 11.191 15.945 20.019 23.264.065.054.074.15.02.216C140.643 218.599 140.599 218.618 140.556 218.618z" class="color0A0909 svgShape"></path><path fill="#0a0909" d="M122.993,200.986c-1.526,0-3.743-0.511-4.765-3.218c-0.03-0.08,0.01-0.168,0.089-0.197
				c0.078-0.03,0.167,0.01,0.197,0.089c1.536,4.065,5.945,2.861,5.988,2.845c0.081-0.027,0.166,0.025,0.189,0.105
				c0.023,0.082-0.024,0.166-0.105,0.189C124.568,200.804,123.903,200.986,122.993,200.986z" class="color0A0909 svgShape"></path><circle cx="164.972" cy="160.854" r=".825" fill="#0a0909" transform="rotate(-2.144 164.766 160.727)" class="color0A0909 svgShape"></circle><circle cx="160.406" cy="156.615" r=".825" fill="#0a0909" transform="rotate(-2.144 160.206 156.49)" class="color0A0909 svgShape"></circle><path fill="#0a0909" d="M159.853 164.257c-.001 0-.001 0-.001 0-.169-.001-.305-.137-.305-.305-.001-.075-.033-.696-.747-.847-.165-.034-.271-.197-.236-.363.035-.165.196-.271.363-.236.978.206 1.234 1.036 1.233 1.446C160.159 164.121 160.022 164.257 159.853 164.257zM170.264 164.85c-.04 0-.08-.016-.11-.047l-3.921-4.071c-.058-.06-.057-.157.004-.216.06-.06.158-.057.217.004l3.921 4.071c.058.06.057.157-.004.216C170.341 164.836 170.303 164.85 170.264 164.85zM159.58 160.738c-2.187 0-4.006-1.737-4.087-3.94-.04-1.092.347-2.135 1.09-2.936.744-.801 1.754-1.265 2.846-1.305 2.24-.078 4.157 1.682 4.241 3.936.084 2.256-1.682 4.158-3.937 4.242C159.683 160.737 159.631 160.738 159.58 160.738zM159.583 152.86c-.047 0-.094.001-.142.003-2.085.078-3.719 1.837-3.641 3.923.076 2.038 1.758 3.645 3.781 3.645.047 0 .094-.001.142-.003 2.085-.078 3.719-1.838 3.641-3.924C163.288 154.468 161.606 152.86 159.583 152.86z" class="color0A0909 svgShape"></path><path fill="#ffffff" d="M157.466,167.364c-1.848,0-3.291-0.598-3.393-0.641c-0.156-0.066-0.228-0.246-0.162-0.402
				c0.066-0.155,0.246-0.227,0.402-0.162c0.04,0.018,4.013,1.655,7.074-0.658c3.164-2.387,6.46-7.645,6.492-7.698
				c0.089-0.142,0.277-0.187,0.422-0.098c0.144,0.09,0.187,0.278,0.098,0.422c-0.137,0.22-3.39,5.408-6.644,7.863
				C160.35,167.051,158.802,167.364,157.466,167.364z" class="colorFFF svgShape"></path><path fill="#0a0909" d="M166.579 166.61c-1.034 0-2.016-.385-2.778-1.092-.801-.744-1.264-1.755-1.305-2.846l0 0c-.084-2.254 1.682-4.157 3.937-4.242.051-.002.102-.003.153-.003 2.187 0 4.006 1.737 4.088 3.94.04 1.092-.347 2.135-1.09 2.936-.744.801-1.755 1.265-2.847 1.305C166.684 166.609 166.632 166.61 166.579 166.61zM166.586 158.733c-.047 0-.094.001-.142.003-2.086.079-3.72 1.839-3.641 3.924l0 0c.037 1.011.466 1.946 1.207 2.634.741.687 1.698 1.052 2.716 1.008 1.01-.037 1.946-.467 2.633-1.207.688-.741 1.046-1.706 1.009-2.715C170.291 160.34 168.608 158.733 166.586 158.733zM158.239 153.096c-.033 0-.066-.01-.094-.032l-5.701-4.441c-.066-.052-.079-.148-.027-.215.052-.069.149-.08.215-.027l5.701 4.441c.066.052.079.148.027.215C158.329 153.076 158.284 153.096 158.239 153.096z" class="color0A0909 svgShape"></path><rect width="7.648" height="91.187" x="252.967" y="196.25" fill="#0a0909" class="color0A0909 svgShape"></rect><path fill="#0a0909" d="M164.095,159.624c-0.08,0-0.147-0.061-0.153-0.142l0,0c-0.003-0.028-0.065-0.687-0.895-0.886
				c-0.082-0.02-0.133-0.103-0.113-0.184c0.02-0.082,0.1-0.135,0.185-0.114c0.844,0.202,1.108,0.848,1.129,1.163
				c0.006,0.084-0.058,0.157-0.142,0.163C164.102,159.624,164.098,159.624,164.095,159.624z" class="color0A0909 svgShape"></path><rect width="176.094" height="12.721" x="160.258" y="174.491" fill="#fbaf00" transform="rotate(132.867 248.309 180.854)" class="colorFEB91E svgShape"></rect><defs><rect id="a" width="176.094" height="12.721" x="160.258" y="174.491" transform="rotate(132.867 248.309 180.854)" fill="#000000" class="color000 svgShape"></rect></defs><clipPath id="b"><use overflow="visible" xlink:href="#a"></use></clipPath><g clip-path="url(#b)" fill="#000000" class="color000 svgShape"><path fill="#fe891e" d="M294.163 128.645c-2.614 0-4.857-1.054-4.895-1.072-.229-.11-.325-.384-.215-.613.109-.23.382-.328.613-.216.06.029 6.087 2.849 9.395-1.185 3.384-4.129 1.404-10.494 1.383-10.558-.077-.242.056-.501.298-.577.244-.077.501.055.578.297.089.28 2.149 6.909-1.548 11.42C298.182 128.083 296.073 128.645 294.163 128.645zM307.24 124.739c-.195 0-.376-.125-.438-.32-1.503-4.741.904-8.234 1.008-8.381.146-.207.433-.256.639-.111.208.146.258.432.112.64-.022.032-2.244 3.283-.883 7.574.077.242-.057.501-.299.577C307.333 124.732 307.286 124.739 307.24 124.739zM284.775 135.618c-1.501 0-2.557-.131-2.662-.145-.252-.032-.429-.263-.396-.514.033-.251.263-.436.514-.397.06.006 6.089.755 10.057-1.43 4.299-2.364 8.906-.426 9.1-.343.233.101.34.371.239.604-.1.234-.371.339-.604.241-.043-.019-4.396-1.84-8.292.303C290.203 135.328 287 135.618 284.775 135.618zM280.981 155.458c-.013 0-.025 0-.038-.002-.253-.02-.441-.242-.42-.495.023-.279.599-6.885 3.902-11.684 3.393-4.929 10.479-4.031 10.78-3.99.251.034.428.265.394.517-.034.253-.266.427-.517.394-.066-.01-6.829-.858-9.9 3.601-3.165 4.599-3.737 11.171-3.743 11.237C281.419 155.277 281.218 155.458 280.981 155.458zM272.177 149.154c-1.431 0-2.469-.304-2.546-.327-.243-.074-.38-.329-.307-.572.073-.242.326-.381.572-.308.033.009 3.196.927 5.976-.604 2.663-1.468 1.506-7.48 1.494-7.541-.049-.249.113-.491.361-.54.251-.045.491.112.541.361.054.274 1.298 6.734-1.952 8.524C274.881 148.936 273.388 149.154 272.177 149.154zM272.36 164.745c-.042 0-.085-.006-.127-.018-3.092-.893-4.876-2.795-4.774-5.088.101-2.279 2.07-4.24 4.788-4.769 4.724-.919 5.632-5.608 5.641-5.656.045-.25.281-.414.535-.37.249.046.415.285.369.535-.01.053-1.037 5.355-6.369 6.393-2.299.447-3.963 2.053-4.045 3.906-.082 1.841 1.455 3.399 4.111 4.165.244.071.384.325.314.569C272.743 164.614 272.56 164.745 272.36 164.745zM252.298 167.66c-.253 0-.459-.206-.459-.459 0-.254.206-.459.459-.459.081 0 8.103-.044 9.792-3.275 1.742-3.33.746-7.944.736-7.99-.055-.248.101-.494.349-.548.245-.062.493.101.548.349.045.203 1.077 4.992-.819 8.615C260.958 167.613 252.651 167.66 252.298 167.66L252.298 167.66zM248.249 175.398c-1.703 0-2.911-.128-3.055-.144-.252-.028-.434-.255-.406-.507.027-.252.256-.44.507-.406.102.012 10.228 1.077 13.994-3.175 4.104-4.634 9.349-3.503 9.573-3.451.247.056.402.302.346.55-.056.247-.301.398-.549.347-.2-.045-4.946-1.051-8.681 3.163C257.24 174.867 251.719 175.398 248.249 175.398zM247.855 183.7c-.035 0-.071-.004-.106-.012-.247-.058-.4-.306-.342-.553 1.7-7.21 11.829-5.193 11.931-5.169.248.051.408.294.356.543-.052.248-.3.398-.543.357-.095-.023-9.355-1.86-10.849 4.481C248.252 183.558 248.063 183.7 247.855 183.7zM239.347 200.31c-.15 0-.297-.074-.385-.208-1.482-2.265-2.361-7.316 1.288-11.951 3.143-3.991-.141-7.562-.282-7.712-.174-.184-.165-.475.019-.649.184-.173.474-.166.649.017.04.042 3.976 4.289.337 8.912-3.326 4.225-2.527 8.915-1.241 10.879.139.213.08.498-.133.637C239.521 200.286 239.433 200.31 239.347 200.31zM216.73 206.119c-.068 0-.114-.001-.137-.001-.254-.003-.457-.212-.454-.466.003-.252.209-.453.459-.453.008-.001.016-.001.055 0 .848 0 12.16-.113 14.738-5.805 2.68-5.916.252-10.062.227-10.103-.131-.217-.061-.499.155-.63.217-.132.499-.062.63.153.112.183 2.714 4.579-.175 10.959C229.447 205.917 218.179 206.119 216.73 206.119zM219.074 222.149c-.237 0-.438-.182-.457-.422-.026-.314-.586-7.745 3.053-11.821 3.712-4.155 9.713-2.109 9.967-2.018.239.084.365.346.281.585-.084.24-.345.369-.585.281-.057-.019-5.678-1.93-8.977 1.764-3.375 3.778-2.828 11.061-2.822 11.134.021.253-.168.475-.421.495C219.099 222.148 219.087 222.149 219.074 222.149zM210.705 227.15c-.186 0-.36-.113-.429-.297-.046-.125-1.089-3.103 2.515-8.298 3.258-4.694-.258-8.482-.294-8.52-.175-.183-.168-.475.016-.649.185-.174.475-.169.65.016.041.042 4.063 4.375.383 9.677-3.297 4.753-2.416 7.431-2.407 7.457.083.238-.04.501-.277.586C210.81 227.142 210.757 227.15 210.705 227.15zM197.464 228.783c-1.043 0-1.781-.075-1.877-.086-.252-.026-.435-.253-.408-.505.027-.253.253-.447.505-.408.072.007 7.235.727 9.003-2.484 1.836-3.336.928-8.151.919-8.2-.048-.249.114-.491.363-.539.247-.042.49.114.539.364.041.211.979 5.194-1.016 8.818C204.047 228.371 199.914 228.783 197.464 228.783zM196.817 234.966c-3.123 0-6.005-.983-6.196-1.05-.239-.084-.366-.346-.283-.585s.346-.364.585-.283c.072.026 7.134 2.43 10.77-.347 4.14-3.165 7.338-.254 7.37-.224.185.173.194.462.022.648-.172.184-.462.196-.649.024-.107-.098-2.674-2.399-6.185.281C200.722 234.598 198.725 234.966 196.817 234.966zM185.323 242.979c-.146 0-.289-.07-.378-.198-.145-.209-.092-.495.117-.639 7.857-5.427 15.111-.301 15.182-.249.206.148.251.435.103.641-.149.204-.436.251-.641.104-.275-.2-6.811-4.791-14.122.26C185.504 242.953 185.413 242.979 185.323 242.979zM189.938 247.264c-.246 0-.45-.194-.458-.443-.009-.251.185-.462.435-.475.042-.004 1.597-.17 2.941-3.04.108-.23.381-.328.611-.222.23.108.329.381.221.611-1.617 3.453-3.647 3.566-3.733 3.569C189.949 247.264 189.944 247.264 189.938 247.264z" class="colorFE891E svgShape"></path></g><path fill="#0a0909" d="M193.066,250.014c-0.075,0-0.15-0.027-0.209-0.082c-0.124-0.115-0.131-0.309-0.016-0.433l119.801-129.06
				c0.114-0.123,0.307-0.131,0.433-0.016c0.124,0.115,0.131,0.309,0.016,0.433l-119.801,129.06
				C193.23,249.981,193.148,250.014,193.066,250.014z" class="color0A0909 svgShape"></path><circle cx="255.139" cy="191.63" r="12.406" fill="#413ada" transform="rotate(-2.144 254.962 191.585)" class="color464D7B svgShape"></circle><g fill="#000000" class="color000 svgShape"><path fill="#f7ebd2" d="M66.712,213.504H43.782c-1.775,0-3.214-1.439-3.214-3.214v-33.086c0-1.775,1.439-3.214,3.214-3.214
				h22.929c1.775,0,3.214,1.439,3.214,3.214v33.086C69.926,212.065,68.487,213.504,66.712,213.504z" class="colorF7EBD2 svgShape"></path><path fill="#0a0909" d="M65.95 181.752h-21.1c-.206 0-.372-.166-.372-.372s.167-.372.372-.372h21.1c.206 0 .372.166.372.372S66.156 181.752 65.95 181.752zM65.95 187.233h-21.1c-.206 0-.372-.166-.372-.372s.167-.372.372-.372h21.1c.206 0 .372.166.372.372S66.156 187.233 65.95 187.233zM65.95 192.716h-21.1c-.206 0-.372-.166-.372-.372s.167-.372.372-.372h21.1c.206 0 .372.166.372.372S66.156 192.716 65.95 192.716zM65.95 198.197h-21.1c-.206 0-.372-.166-.372-.372s.167-.372.372-.372h21.1c.206 0 .372.166.372.372S66.156 198.197 65.95 198.197zM65.95 203.679h-21.1c-.206 0-.372-.166-.372-.372s.167-.372.372-.372h21.1c.206 0 .372.166.372.372S66.156 203.679 65.95 203.679z" class="color0A0909 svgShape"></path></g><g fill="#000000" class="color000 svgShape"><path fill="#f7ebd2" d="M293.689,296.072h-22.929c-1.775,0-3.214-1.439-3.214-3.214v-33.086c0-1.775,1.439-3.214,3.214-3.214
				h22.929c1.775,0,3.214,1.439,3.214,3.214v33.086C296.903,294.633,295.464,296.072,293.689,296.072z" class="colorF7EBD2 svgShape"></path><path fill="#0a0909" d="M292.927 264.32h-21.1c-.206 0-.372-.166-.372-.372 0-.206.167-.372.372-.372h21.1c.206 0 .372.166.372.372C293.299 264.154 293.133 264.32 292.927 264.32zM292.927 269.801h-21.1c-.206 0-.372-.166-.372-.372 0-.206.167-.372.372-.372h21.1c.206 0 .372.166.372.372C293.299 269.635 293.133 269.801 292.927 269.801zM292.927 275.283h-21.1c-.206 0-.372-.166-.372-.372 0-.206.167-.372.372-.372h21.1c.206 0 .372.166.372.372C293.299 275.116 293.133 275.283 292.927 275.283zM292.927 280.765h-21.1c-.206 0-.372-.166-.372-.372 0-.206.167-.372.372-.372h21.1c.206 0 .372.166.372.372C293.299 280.599 293.133 280.765 292.927 280.765zM292.927 286.246h-21.1c-.206 0-.372-.166-.372-.372 0-.206.167-.372.372-.372h21.1c.206 0 .372.166.372.372C293.299 286.08 293.133 286.246 292.927 286.246z" class="color0A0909 svgShape"></path></g></g></svg></g></svg>